<?xml version="1.0" encoding="iso-8859-1"?>
<!-- Generator: Adobe Illustrator 16.0.0, SVG Export Plug-In . SVG Version: 6.00 Build 0)  -->
<!DOCTYPE svg PUBLIC "-//W3C//DTD SVG 1.1//EN" "http://www.w3.org/Graphics/SVG/1.1/DTD/svg11.dtd">
<svg version="1.1" id="Capa_1" xmlns="http://www.w3.org/2000/svg" xmlns:xlink="http://www.w3.org/1999/xlink" x="0px" y="0px"
	 width="56.393px" height="56.393px" viewBox="0 0 56.393 56.393" style="enable-background:new 0 0 56.393 56.393;"
	 xml:space="preserve">
<g>
	<g>
		<path d="M54.646,53.631l-6.343-34.638c-0.203-1.109-1.171-1.916-2.299-1.916H31.266v-2.645h19.13c1.291,0,2.337-1.047,2.337-2.338
			V2.336C52.732,1.047,51.687,0,50.396,0s-2.337,1.047-2.337,2.336v7.422H9.799V2.336C9.799,1.047,8.753,0,7.462,0
			S5.125,1.047,5.125,2.336v9.758c0,1.291,1.046,2.338,2.337,2.338h19.13v2.645H10.145c-1.134,0-2.105,0.814-2.301,1.932
			l-6.1,34.642c-0.119,0.68,0.067,1.379,0.513,1.906c0.443,0.528,1.099,0.836,1.79,0.836h48.3c0.694,0,1.351-0.31,1.795-0.843
			C54.586,55.016,54.771,54.314,54.646,53.631z M6.83,51.715l5.275-29.965h31.95l5.486,29.965H6.83z"/>
		<path d="M28.196,23.542c-6.735,0-12.217,5.479-12.217,12.217s5.481,12.216,12.217,12.216c6.736,0,12.217-5.479,12.217-12.217
			C40.413,29.021,34.933,23.542,28.196,23.542z M28.196,43.301c-4.159,0-7.542-3.385-7.542-7.543c0-3.338,2.194-6.145,5.205-7.135
			v7.135c0,1.289,1.046,2.336,2.337,2.336s2.337-1.047,2.337-2.336v-7.135c3.012,0.99,5.205,3.797,5.205,7.135
			C35.738,39.917,32.355,43.301,28.196,43.301z"/>
	</g>
</g>
<g>
</g>
<g>
</g>
<g>
</g>
<g>
</g>
<g>
</g>
<g>
</g>
<g>
</g>
<g>
</g>
<g>
</g>
<g>
</g>
<g>
</g>
<g>
</g>
<g>
</g>
<g>
</g>
<g>
</g>
</svg>
