<?xml version="1.0" encoding="UTF-8"?>
<svg width="64px" height="90px" viewBox="0 0 64 90" version="1.1" xmlns="http://www.w3.org/2000/svg" xmlns:xlink="http://www.w3.org/1999/xlink">
    <!-- Generator: Sketch 49.3 (51167) - http://www.bohemiancoding.com/sketch -->
    <title>beaker copy 3</title>
    <desc>Created with Sketch.</desc>
    <defs></defs>
    <g id="Page-1" stroke="none" stroke-width="1" fill="none" fill-rule="evenodd" opacity="0.850000024">
        <g id="iPad" transform="translate(-480.000000, -207.000000)" fill="#000000" fill-rule="nonzero">
            <g id="beaker-copy-3" transform="translate(480.000000, 207.000000)">
                <rect id="Rectangle-path" x="24" y="68" width="2" height="2"></rect>
                <rect id="Rectangle-path" x="42" y="68" width="2" height="2"></rect>
                <rect id="Rectangle-path" x="39" y="77" width="2" height="2"></rect>
                <rect id="Rectangle-path" x="25" y="82" width="2" height="2"></rect>
                <rect id="Rectangle-path" x="17" y="73" width="2" height="2"></rect>
                <rect id="Rectangle-path" x="30" y="47" width="2" height="2"></rect>
                <rect id="Rectangle-path" x="62" y="34" width="2" height="2"></rect>
                <rect id="Rectangle-path" x="2" y="24" width="2" height="2"></rect>
                <rect id="Rectangle-path" x="11" y="11" width="2" height="2"></rect>
                <rect id="Rectangle-path" x="34" y="54" width="2" height="2"></rect>
                <polygon id="Shape" points="56.3334502 16.6664913 56.3334502 14 53.6665498 14 53.6665498 16.6664913 51 16.6664913 51 19.3335087 53.6665498 19.3335087 53.6665498 22 56.3334502 22 56.3334502 19.3335087 59 19.3335087 59 16.6664913"></polygon>
                <polygon id="Shape" points="4.27798319 47.722065 4.27798319 46 1.72201681 46 1.72201681 47.722065 0 47.722065 0 50.278103 1.72201681 50.278103 1.72201681 52 4.27798319 52 4.27798319 50.278103 6 50.278103 6 47.722065"></polygon>
                <path d="M60.4406669,74.0511914 L52.8898057,61.777793 L43.696147,46.8335742 L43.6497443,46.7634375 C41.4580287,43.6579102 40.2995813,40.0225781 40.2995813,36.2499609 L40.2995813,7.51552734 L42.4876998,7.51552734 L42.4876998,0 L19.5120961,0 L19.5120961,7.51552734 L21.7002146,7.51552734 L21.7002146,36.2501367 C21.7002146,40.0225781 20.5417672,43.6580859 18.3500516,46.7636133 L9.56970017,61.0317773 L9.5691606,61.0317773 L1.55930887,74.0513672 C-0.467479482,77.3458594 -0.521436044,81.3104297 1.41488514,84.6566016 C3.35138617,88.0024219 6.85550521,90 10.7889386,90 L51.2113969,90 C55.1446504,90 58.6487695,88.0024219 60.5852705,84.65625 C62.5214118,81.3102539 62.4674553,77.3456836 60.4406669,74.0511914 Z M22.2473341,2.67328125 L39.7528215,2.67328125 L39.7528215,4.84224609 L22.2473341,4.84224609 L22.2473341,2.67328125 Z M20.626479,48.2461523 C23.1183729,44.7001172 24.4356325,40.5529102 24.4356325,36.2499609 L24.4356325,7.51552734 L37.564703,7.51552734 L37.564703,10.0763086 L33.6762334,10.0763086 L33.6762334,12.7495898 L37.564703,12.7495898 L37.564703,16.1947266 L31.3057417,16.1947266 L31.3057417,18.8680078 L37.564703,18.8680078 L37.564703,22.3131445 L33.6762334,22.3131445 L33.6762334,24.9864258 L37.564703,24.9864258 L37.564703,28.4315625 L31.3057417,28.4315625 L31.3057417,31.1048438 L37.564703,31.1048438 L37.564703,34.5499805 L33.6762334,34.5499805 L33.6762334,37.2232617 L37.5897029,37.2232617 C37.7731552,41.176582 39.070271,44.9685352 41.3738565,48.2465039 L49.2392845,61.0316016 L12.7608711,61.0316016 L20.626479,48.2461523 Z M58.2041674,83.3401758 C56.7595704,85.8364453 54.1453749,87.3267188 51.2110372,87.3267188 L10.7889386,87.3267188 C7.8546009,87.3267188 5.24040543,85.8364453 3.79580839,83.3401758 C2.35121135,80.8439063 2.39149892,77.8862109 3.90354166,75.4286133 L11.1160953,63.704707 L50.8835208,63.704707 L58.0960744,75.4286133 C59.6084769,77.8863867 59.6487644,80.844082 58.2041674,83.3401758 Z" id="Shape"></path>
                <rect id="Rectangle-path" transform="translate(52.000000, 73.000000) rotate(-31.017801) translate(-52.000000, -73.000000) " x="51" y="71" width="2" height="4"></rect>
                <path d="M56.8843348,76.1022406 L56.8251635,76 L54.3843467,77.5225297 L54.4431435,77.6243815 C55.9542591,80.2332662 54.8961037,83.2056298 53,84.5716886 L54.624028,87 C58.0153309,84.5559443 59.0081357,79.7685185 56.8843348,76.1022406 Z" id="Shape"></path>
            </g>
        </g>
    </g>
</svg>