<?xml version="1.0" encoding="iso-8859-1"?>
<!-- Generator: Adobe Illustrator 19.0.0, SVG Export Plug-In . SVG Version: 6.00 Build 0)  -->
<svg version="1.1" id="Capa_1" xmlns="http://www.w3.org/2000/svg" xmlns:xlink="http://www.w3.org/1999/xlink" x="0px" y="0px"
	 viewBox="0 0 470 470" style="enable-background:new 0 0 470 470;" xml:space="preserve">
<g>
	<path d="M380,312.413H247.5v-17.5c0-4.142-3.357-7.5-7.5-7.5h-12.5v-25h2.5c4.142,0,7.5-3.358,7.5-7.5s-3.358-7.5-7.5-7.5h-2.5
		V127.5c0-4.142-3.358-7.5-7.5-7.5h-40c-4.142,0-7.5,3.358-7.5,7.5v119.913H170c-4.142,0-7.5,3.358-7.5,7.5s3.358,7.5,7.5,7.5h2.5
		v25H160c-4.142,0-7.5,3.358-7.5,7.5v74.519c-26.946,9.141-50.455,25.746-68.267,48.275c-0.014,0.017-0.028,0.034-0.041,0.05
		c-0.026,0.033-0.055,0.065-0.081,0.099c-0.02,0.026-0.034,0.056-0.054,0.082c-0.467,0.608-0.841,1.288-1.106,2.022
		c-0.017,0.047-0.035,0.093-0.051,0.14c-0.118,0.348-0.21,0.707-0.276,1.076c-0.011,0.061-0.018,0.122-0.028,0.183
		c-0.057,0.373-0.096,0.752-0.096,1.14v40c0,4.142,3.358,7.5,7.5,7.5h220c4.143,0,7.5-3.358,7.5-7.5v-40
		c0-0.389-0.039-0.767-0.096-1.14c-0.009-0.061-0.017-0.123-0.028-0.184c-0.066-0.369-0.158-0.728-0.276-1.076
		c-0.016-0.047-0.034-0.093-0.051-0.14c-0.264-0.733-0.638-1.412-1.104-2.019c-0.021-0.027-0.035-0.058-0.056-0.085
		c-0.028-0.035-0.057-0.068-0.084-0.103c-0.012-0.014-0.023-0.029-0.035-0.043c-17.812-22.531-41.322-39.137-68.27-48.278v-12.019
		H380c4.143,0,7.5-3.358,7.5-7.5v-30C387.5,315.771,384.143,312.413,380,312.413z M342.5,327.413v15h-15v-15H342.5z M187.5,135h25
		v112.413h-25V135z M187.5,262.413h25v25h-25V262.413z M167.5,302.413h65v17.5v30v17.5h-65V302.413z M293.271,415H270
		c-4.143,0-7.5,3.358-7.5,7.5s3.357,7.5,7.5,7.5h32.5v25h-205v-25H240c4.143,0,7.5-3.358,7.5-7.5s-3.357-7.5-7.5-7.5H106.729
		c15.21-15.117,33.734-26.262,54.378-32.587h77.785C259.536,388.738,278.061,399.883,293.271,415z M247.5,327.413h65v15h-65V327.413
		z M372.5,342.413h-15v-15h15V342.413z"/>
	<path d="M200,105c20.678,0,37.5-16.822,37.5-37.5c0-31.017-30.75-63.783-32.059-65.162C204.024,0.845,202.058,0,200,0
		s-4.024,0.845-5.441,2.338C193.25,3.717,162.5,36.483,162.5,67.5C162.5,88.178,179.322,105,200,105z M200,19.014
		c8.131,10.085,22.5,30.459,22.5,48.486c0,12.407-10.093,22.5-22.5,22.5s-22.5-10.093-22.5-22.5
		C177.5,49.473,191.87,29.098,200,19.014z"/>
</g>
<g>
</g>
<g>
</g>
<g>
</g>
<g>
</g>
<g>
</g>
<g>
</g>
<g>
</g>
<g>
</g>
<g>
</g>
<g>
</g>
<g>
</g>
<g>
</g>
<g>
</g>
<g>
</g>
<g>
</g>
</svg>
