<?xml version="1.0" encoding="iso-8859-1"?>
<!-- Generator: Adobe Illustrator 19.0.0, SVG Export Plug-In . SVG Version: 6.00 Build 0)  -->
<svg version="1.1" id="Capa_1" xmlns="http://www.w3.org/2000/svg" xmlns:xlink="http://www.w3.org/1999/xlink" x="0px" y="0px"
	 viewBox="0 0 512 512" style="enable-background:new 0 0 512 512;" xml:space="preserve">
<g>
	<g>
		<g>
			<path d="M435.2,324.267h-86.906c-3.592-10.199-13.214-17.034-24.027-17.067h-8.533v-85.333h11.792
				c6.472,0.027,12.395-3.633,15.267-9.433l12.35-24.7h3.258c14.132-0.015,25.585-11.468,25.6-25.6V17.067
				C383.989,7.645,376.355,0.011,366.933,0h-17.067c-9.421,0.011-17.056,7.645-17.067,17.067v119.467H179.2V17.067
				C179.189,7.645,171.555,0.011,162.133,0h-17.067C135.645,0.011,128.011,7.645,128,17.067v145.067
				c0.015,14.132,11.468,25.585,25.6,25.6h3.258l12.35,24.692c2.868,5.805,8.792,9.468,15.267,9.442h11.792V307.2h-8.533
				c-10.813,0.033-20.435,6.868-24.027,17.067H76.8c-18.843,0.02-34.113,15.29-34.133,34.133v51.2
				c0.02,18.843,15.29,34.113,34.133,34.133h86.906c3.592,10.199,13.214,17.034,24.027,17.067h8.533v42.667
				c-0.001,2.263,0.898,4.434,2.499,6.035c1.6,1.6,3.771,2.499,6.035,2.499h102.4c2.263,0.001,4.434-0.898,6.035-2.499
				c1.6-1.6,2.499-3.771,2.499-6.035V460.8h8.533c10.813-0.033,20.435-6.868,24.027-17.067H435.2
				c18.843-0.02,34.113-15.29,34.133-34.133v-51.2C469.313,339.557,454.043,324.287,435.2,324.267z M93.867,426.667H76.8
				c-9.421-0.011-17.056-7.645-17.067-17.067v-51.2c0.011-9.421,7.645-17.056,17.067-17.067h17.067V426.667z M162.133,426.667h-51.2
				v-85.333h51.2V426.667z M153.6,170.667c-4.711-0.005-8.529-3.822-8.533-8.533V17.067h17.067v119.467
				c0.011,9.421,7.646,17.056,17.067,17.067h153.6c9.421-0.011,17.056-7.646,17.067-17.067V17.067l17.067-0.012v145.079
				c-0.005,4.711-3.822,8.529-8.533,8.533H153.6z M184.475,204.8l-8.533-17.067h160.117l-8.533,17.067H184.475z M298.667,221.867
				V307.2h-85.333v-85.333H298.667z M298.667,494.933h-85.333V460.8h85.333V494.933z M332.8,435.2
				c-0.005,4.711-3.822,8.529-8.533,8.533H187.733c-4.711-0.005-8.529-3.822-8.533-8.533V332.8c0.005-4.711,3.822-8.529,8.533-8.533
				h136.533c4.711,0.005,8.529,3.823,8.533,8.533V435.2z M401.067,426.667h-51.2v-85.333h51.2V426.667z M452.267,409.6
				c-0.011,9.421-7.645,17.056-17.067,17.067h-17.067v-85.333H435.2c9.421,0.011,17.056,7.645,17.067,17.067V409.6z"/>
			<path d="M133.291,408.917c2.065,0.911,4.418,0.911,6.483,0c1.033-0.435,1.985-1.041,2.817-1.792c3.3-3.365,3.3-8.752,0-12.117
				c-0.817-0.771-1.773-1.381-2.817-1.796c-2.078-0.85-4.406-0.85-6.483,0c-0.546,0.187-1.064,0.447-1.542,0.771
				c-0.446,0.315-0.872,0.657-1.275,1.024c-0.753,0.828-1.359,1.78-1.792,2.813c-0.438,1.027-0.67,2.13-0.683,3.246
				c0.03,2.26,0.914,4.424,2.475,6.059C131.291,407.896,132.247,408.504,133.291,408.917z"/>
			<path d="M367.617,404.308c0.184,0.545,0.442,1.062,0.767,1.538c0.317,0.446,0.659,0.873,1.025,1.279
				c1.636,1.558,3.8,2.441,6.059,2.475c0.573-0.016,1.144-0.073,1.708-0.171c0.533-0.096,1.05-0.269,1.533-0.512
				c0.543-0.188,1.059-0.447,1.533-0.771c0.425-0.337,0.858-0.679,1.283-1.021c3.3-3.365,3.3-8.752,0-12.117l0,0
				c-0.425-0.341-0.858-0.683-1.283-1.025c-0.474-0.324-0.99-0.583-1.533-0.771c-0.483-0.244-1-0.416-1.534-0.508
				c-2.811-0.575-5.724,0.289-7.767,2.304c-0.368,0.405-0.71,0.832-1.025,1.279c-0.324,0.474-0.582,0.99-0.767,1.533
				c-0.246,0.485-0.42,1.003-0.517,1.537c-0.093,0.565-0.149,1.136-0.167,1.709c0.014,0.571,0.07,1.141,0.167,1.704
				C367.196,403.306,367.37,403.824,367.617,404.308z"/>
		</g>
	</g>
</g>
<g>
</g>
<g>
</g>
<g>
</g>
<g>
</g>
<g>
</g>
<g>
</g>
<g>
</g>
<g>
</g>
<g>
</g>
<g>
</g>
<g>
</g>
<g>
</g>
<g>
</g>
<g>
</g>
<g>
</g>
</svg>
