<?xml version="1.0" encoding="iso-8859-1"?>
<!-- Generator: Adobe Illustrator 18.0.0, SVG Export Plug-In . SVG Version: 6.00 Build 0)  -->
<!DOCTYPE svg PUBLIC "-//W3C//DTD SVG 1.1//EN" "http://www.w3.org/Graphics/SVG/1.1/DTD/svg11.dtd">
<svg version="1.1" id="Capa_1" xmlns="http://www.w3.org/2000/svg" xmlns:xlink="http://www.w3.org/1999/xlink" x="0px" y="0px"
	 viewBox="0 0 299.666 299.666" style="enable-background:new 0 0 299.666 299.666;" xml:space="preserve">
<path d="M247.167,53.622l-71.267-23.225V12.5c0-6.903-5.597-12.5-12.5-12.5h-48.374c-6.903,0-12.5,5.597-12.5,12.5v103.814
	c-34.739,14.562-58.658,48.567-58.658,88.007c0,52.573,42.771,95.345,95.345,95.345c52.573,0,95.345-42.771,95.345-95.345
	c0-39.393-23.877-73.426-58.657-88.006v-8.746l48.532,15.815c6.576,2.14,13.623-1.462,15.758-8.012l14.988-45.993
	C257.318,62.816,253.731,55.761,247.167,53.622z M220.294,95.742l-53.021-17.278c-8.06-2.63-16.373,3.385-16.373,11.885v34.726
	c0,5.5,3.595,10.354,8.855,11.957c17.107,5.215,30.979,16.36,39.699,30.802h-91.047c-10.285,12.371-15.498,28.612-13.762,45.56
	c0.704,6.868-4.293,13.006-11.16,13.709c-6.331,0.657-12.387-3.045-13.767-11.863c-3.757-39.723,17.679-68.673,48.952-78.208
	c5.402-1.648,8.854-6.634,8.854-11.957V25h23.374v14.471c0,5.411,3.481,10.208,8.627,11.885l68.009,22.163L220.294,95.742z"/>
<g>
</g>
<g>
</g>
<g>
</g>
<g>
</g>
<g>
</g>
<g>
</g>
<g>
</g>
<g>
</g>
<g>
</g>
<g>
</g>
<g>
</g>
<g>
</g>
<g>
</g>
<g>
</g>
<g>
</g>
</svg>
