<?xml version="1.0" encoding="iso-8859-1"?>
<!-- Generator: Adobe Illustrator 19.0.0, SVG Export Plug-In . SVG Version: 6.00 Build 0)  -->
<svg version="1.1" id="Layer_1" xmlns="http://www.w3.org/2000/svg" xmlns:xlink="http://www.w3.org/1999/xlink" x="0px" y="0px"
	 viewBox="0 0 512 512" style="enable-background:new 0 0 512 512;" xml:space="preserve">
<g>
	<g>
		<path d="M417.132,437.241l-104.628-141.36V71.517h21.06V0H178.436v71.517h21.06v224.364L94.867,437.241
			c-10.593,14.311-12.195,33.08-4.182,48.981C98.698,502.122,114.738,512,132.543,512h246.913c17.806,0,33.845-9.878,41.859-25.779
			C429.328,470.32,427.725,451.552,417.132,437.241z M208.853,30.417h94.293V41.1h-94.293V30.417z M229.914,243.881v-20.278h31.156
			v-30.417h-31.156v-20.278h31.156v-30.417h-31.156v-20.278h31.156V91.795h-31.156V71.517h52.173v234.396l19.011,25.684h-90.194
			l19.011-25.684v-31.615h31.156v-30.417H229.914z M394.152,472.533c-2.855,5.667-8.349,9.05-14.696,9.05H132.543
			c-6.346,0-11.839-3.383-14.696-9.05c-2.855-5.667-2.307-12.096,1.468-17.196l69.073-93.322H323.61l69.073,93.322
			C396.459,460.438,397.008,466.866,394.152,472.533z"/>
	</g>
</g>
<g>
</g>
<g>
</g>
<g>
</g>
<g>
</g>
<g>
</g>
<g>
</g>
<g>
</g>
<g>
</g>
<g>
</g>
<g>
</g>
<g>
</g>
<g>
</g>
<g>
</g>
<g>
</g>
<g>
</g>
</svg>
