<?xml version="1.0" encoding="iso-8859-1"?>
<!-- Generator: Adobe Illustrator 18.0.0, SVG Export Plug-In . SVG Version: 6.00 Build 0)  -->
<!DOCTYPE svg PUBLIC "-//W3C//DTD SVG 1.1//EN" "http://www.w3.org/Graphics/SVG/1.1/DTD/svg11.dtd">
<svg version="1.1" id="Capa_1" xmlns="http://www.w3.org/2000/svg" xmlns:xlink="http://www.w3.org/1999/xlink" x="0px" y="0px"
	 viewBox="0 0 296.425 296.425" style="enable-background:new 0 0 296.425 296.425;" xml:space="preserve">
<path d="M267.752,0H28.656C17.753,0,7.858,6.858,4.031,17.067C0.203,27.276,3.152,38.95,11.367,46.116l49.315,43.025v180.984
	c0,14.501,11.798,26.299,26.3,26.299h180.77c14.502,0,26.3-11.798,26.3-26.299V26.3C294.051,11.798,282.253,0,267.752,0z
	 M27.801,27.277c-0.405-0.354-0.551-0.93-0.362-1.434C27.628,25.339,28.118,25,28.656,25h239.096c0.717,0,1.3,0.583,1.3,1.3v74.579
	H85.682v-17.42c0-3.61-1.562-7.045-4.282-9.419L27.801,27.277z M85.682,146.712h45.935c6.903,0,12.5,5.597,12.5,12.5
	s-5.597,12.5-12.5,12.5H85.682V146.712z M85.682,208.356h45.935c6.903,0,12.5,5.597,12.5,12.5c0,6.903-5.597,12.5-12.5,12.5H85.682
	V208.356z"/>
<g>
</g>
<g>
</g>
<g>
</g>
<g>
</g>
<g>
</g>
<g>
</g>
<g>
</g>
<g>
</g>
<g>
</g>
<g>
</g>
<g>
</g>
<g>
</g>
<g>
</g>
<g>
</g>
<g>
</g>
</svg>
