<?xml version="1.0" encoding="iso-8859-1"?>
<!-- Generator: Adobe Illustrator 19.0.0, SVG Export Plug-In . SVG Version: 6.00 Build 0)  -->
<svg version="1.1" id="Capa_1" xmlns="http://www.w3.org/2000/svg" xmlns:xlink="http://www.w3.org/1999/xlink" x="0px" y="0px"
	 viewBox="0 0 347.2 347.2" style="enable-background:new 0 0 347.2 347.2;" xml:space="preserve">
<g>
	<g>
		<path d="M219.398,238V68.8c4.8-2.4,8-8,8-14c0-8.4-6-15.2-13.6-15.2h-80.4c-7.6,0-13.6,6.8-13.6,15.2c0,6,2.8,11.2,7.2,13.6v170
			c-11.2,12-17.6,27.6-17.6,44.4c0,35.6,28.8,64.4,64.4,64.4c35.6,0,64.4-28.8,64-64C237.798,266.4,231.398,250,219.398,238z
			 M173.798,333.2c-28,0-50.4-22.8-50.4-50.4c0-14,5.6-26.8,15.6-36.4l2-2V56h-6.8c0,0,0-0.4-0.4-1.2c0-0.4,0.4-0.8,0.4-1.2h78.8
			c0.4,0.4,0.4,0.8,0.4,1.2c0,0.4-0.4,0.8-0.4,1.2h-7.6v188l2.4,2c10.4,9.2,16.4,22.8,16.4,36.8
			C224.198,310.8,201.398,333.2,173.798,333.2z"/>
	</g>
</g>
<g>
	<g>
		<circle cx="156.198" cy="11.2" r="11.2"/>
	</g>
</g>
<g>
	<g>
		<circle cx="184.598" cy="29.2" r="7.2"/>
	</g>
</g>
<g>
	<g>
		<circle cx="184.598" cy="126" r="4.8"/>
	</g>
</g>
<g>
	<g>
		<path d="M194.598,251.2v-108h-12.8c0-3.6-2.8-6.4-6.4-6.4c-3.6,0-6.4,2.8-6.4,6.4c0-4.8-3.6-8.4-8.4-8.4c-4.8,0-8.4,3.6-8.4,8.4
			v108.4c-10,6.8-16.8,18.4-16.8,31.6c0,21.2,17.2,38.4,38.4,38.4s38.4-17.2,38.4-38.4C212.198,270,204.998,258,194.598,251.2z
			 M168.198,177.6c-3.2,0-6-2.8-6-6s2.8-6,6-6c3.2,0,6,2.8,6,6C174.198,175.2,171.398,177.6,168.198,177.6z M179.398,204.4
			c-2.4,0-4-2-4-4c0-2.4,2-4,4-4c2.4,0,4,2,4,4C183.798,202.8,181.798,204.4,179.398,204.4z"/>
	</g>
</g>
<g>
</g>
<g>
</g>
<g>
</g>
<g>
</g>
<g>
</g>
<g>
</g>
<g>
</g>
<g>
</g>
<g>
</g>
<g>
</g>
<g>
</g>
<g>
</g>
<g>
</g>
<g>
</g>
<g>
</g>
</svg>
