<?xml version="1.0" encoding="iso-8859-1"?>
<!-- Generator: Adobe Illustrator 16.0.0, SVG Export Plug-In . SVG Version: 6.00 Build 0)  -->
<!DOCTYPE svg PUBLIC "-//W3C//DTD SVG 1.1//EN" "http://www.w3.org/Graphics/SVG/1.1/DTD/svg11.dtd">
<svg version="1.1" id="Capa_1" xmlns="http://www.w3.org/2000/svg" xmlns:xlink="http://www.w3.org/1999/xlink" x="0px" y="0px"
	 width="31.032px" height="31.032px" viewBox="0 0 31.032 31.032" style="enable-background:new 0 0 31.032 31.032;"
	 xml:space="preserve">
<g>
	<g>
		<path d="M23.299,1.071c-3.101-0.283-8.223-0.849-11.437-0.752c0.001,0.004,0.004,0.008,0.012,0.019C5.033,0.576,0,3.372,0,7.068
			l0.012,17.18c0.259,3.714,5.685,6.477,12.829,6.477c5.127,0,9.35-1.424,11.432-3.6c1.178,0.009,2.305,0.107,3.344,0.276
			c0.816,0.133,1.648-0.099,2.279-0.633c0.632-0.533,0.996-1.316,1.002-2.143l0.134-19.675c0.01-1.564-1.099-2.914-2.636-3.201
			C26.758,1.443,24.915,1.219,23.299,1.071z M12.841,2.678c5.969,0,10.428,2.291,10.428,4.338c0,2.046-4.459,4.335-10.428,4.335
			S2.412,9.062,2.412,7.016C2.413,4.969,6.873,2.678,12.841,2.678z M23.256,23.917c0,2.047-4.445,4.336-10.415,4.336
			c-1.125,0-2.198-0.081-3.196-0.228l0.002-0.396c0.003-0.533-0.427-0.724-0.96-0.724c-0.001,0-0.003,0-0.005,0
			c-0.531,0-0.961,0.188-0.962,0.72v0.02c-3.224-0.817-5.308-2.33-5.308-3.728c0-0.698-0.152-12.922-0.152-12.922
			c1.538,1.127,3.704,1.978,6.286,2.423c-0.438,0.068-0.767,0.36-0.769,0.825l-0.014,3.145c-0.004,0.532,0.427,0.814,0.959,0.814
			h0.005c0.53,0,0.961-0.25,0.964-0.781l0.013-3.104c0.002-0.353-0.187-0.639-0.469-0.794c1.115,0.158,2.299,0.243,3.54,0.243
			c4.444,0,8.35-1.071,10.514-2.771C23.289,10.995,23.256,23.188,23.256,23.917z M28.525,23.321
			c-0.002,0.449-0.194,0.879-0.529,1.18s-0.781,0.448-1.23,0.403c-0.387-0.04-0.779-0.071-1.18-0.093
			c0.04-0.186,0.057-17.742,0.057-17.742c0-1.335-0.656-2.554-1.817-3.575c1.144,0.09,2.33,0.215,3.437,0.375
			c0.789,0.115,1.371,0.792,1.365,1.591C28.6,10.464,28.555,18.036,28.525,23.321z"/>
		<ellipse cx="12.842" cy="7.016" rx="4.048" ry="1.929"/>
		<path d="M8.718,20.159H8.713c-0.531,0-0.961,0.255-0.964,0.786l-0.014,3.096c-0.002,0.533,0.426,0.908,0.959,0.908H8.7
			c0.53,0,0.962-0.298,0.963-0.829l0.014-3.148C9.679,20.439,9.249,20.159,8.718,20.159z"/>
	</g>
</g>
<g>
</g>
<g>
</g>
<g>
</g>
<g>
</g>
<g>
</g>
<g>
</g>
<g>
</g>
<g>
</g>
<g>
</g>
<g>
</g>
<g>
</g>
<g>
</g>
<g>
</g>
<g>
</g>
<g>
</g>
</svg>
