<?xml version="1.0" encoding="iso-8859-1"?>
<!-- Generator: Adobe Illustrator 19.0.0, SVG Export Plug-In . SVG Version: 6.00 Build 0)  -->
<svg version="1.1" id="Capa_1" xmlns="http://www.w3.org/2000/svg" xmlns:xlink="http://www.w3.org/1999/xlink" x="0px" y="0px"
	 viewBox="0 0 512.387 512.387" style="enable-background:new 0 0 512.387 512.387;" xml:space="preserve">
<g>
	<g>
		<path d="M480.527,30.112c-38.4-38.4-102.4-40.96-140.8-2.56c-25.6,23.04-53.76,81.92-58.88,128l-17.92-15.36
			c-10.24-10.24-25.6-10.24-35.84,0s-10.24,25.6,0,35.84l20.48,17.92l-204.8,204.8c-20.48,17.92-56.32,87.04-35.84,107.52
			c20.48,20.48,89.6-15.36,110.08-35.84l202.24-202.24l17.92,17.92c10.24,10.24,25.6,10.24,35.84,0s10.24-25.6,0-35.84l-17.92-17.92
			c46.08-5.12,102.4-33.28,128-58.88C521.487,135.072,521.487,71.072,480.527,30.112z"/>
	</g>
</g>
<g>
</g>
<g>
</g>
<g>
</g>
<g>
</g>
<g>
</g>
<g>
</g>
<g>
</g>
<g>
</g>
<g>
</g>
<g>
</g>
<g>
</g>
<g>
</g>
<g>
</g>
<g>
</g>
<g>
</g>
</svg>
