<?xml version="1.0" encoding="iso-8859-1"?>
<!-- Generator: Adobe Illustrator 16.0.0, SVG Export Plug-In . SVG Version: 6.00 Build 0)  -->
<!DOCTYPE svg PUBLIC "-//W3C//DTD SVG 1.1//EN" "http://www.w3.org/Graphics/SVG/1.1/DTD/svg11.dtd">
<svg version="1.1" id="Capa_1" xmlns="http://www.w3.org/2000/svg" xmlns:xlink="http://www.w3.org/1999/xlink" x="0px" y="0px"
	 width="45.637px" height="45.637px" viewBox="0 0 45.637 45.637" style="enable-background:new 0 0 45.637 45.637;"
	 xml:space="preserve">
<g>
	<path d="M29.775,17.766V3.927h0.972c1.096,0,1.983-0.868,1.983-1.963C32.73,0.868,31.841,0,30.747,0H14.873
		c-1.096,0-1.984,0.868-1.984,1.964c0,1.096,0.889,1.963,1.984,1.963h1v13.839c-4.67,2.488-7.858,7.407-7.858,13.071
		c0,8.173,6.622,14.8,14.797,14.8c8.175,0,14.811-6.627,14.811-14.8C37.62,25.174,34.445,20.254,29.775,17.766z M33.518,30.99
		c-0.011,0-0.019,0-0.028,0c-0.809,0-1.473-0.645-1.486-1.456c-0.065-3.667-2.446-6.894-5.926-8.033
		c-0.613-0.201-1.027-0.772-1.025-1.417L25.1,5.859c0.003-0.82,0.722-1.508,1.493-1.508c0.771,0,1.486,0.696,1.482,1.518
		l-0.044,13.186c4.116,1.797,6.865,5.857,6.947,10.419C34.993,30.296,34.339,30.99,33.518,30.99z"/>
</g>
<g>
</g>
<g>
</g>
<g>
</g>
<g>
</g>
<g>
</g>
<g>
</g>
<g>
</g>
<g>
</g>
<g>
</g>
<g>
</g>
<g>
</g>
<g>
</g>
<g>
</g>
<g>
</g>
<g>
</g>
</svg>
