<?xml version="1.0" encoding="iso-8859-1"?>
<!-- Generator: Adobe Illustrator 19.0.0, SVG Export Plug-In . SVG Version: 6.00 Build 0)  -->
<svg version="1.1" id="Capa_1" xmlns="http://www.w3.org/2000/svg" xmlns:xlink="http://www.w3.org/1999/xlink" x="0px" y="0px"
	 viewBox="0 0 480 480" style="enable-background:new 0 0 480 480;" xml:space="preserve">
<g>
	<g>
		<g>
			<path d="M0,84v40h40v272h40v-48h320v48h40V124h40V84H0z M64,380h-8v-32h8V380z M232,332H56V188h176V332z M232,172H56v-48h176V172
				z M400,332H248V188h152V332z M424,380h-8V188h8V380z M424,172H248v-48h176V172z M464,108H16v-8h448V108z"/>
			<rect x="120" y="140" width="48" height="16"/>
			<rect x="320" y="140" width="48" height="16"/>
			<rect x="120" y="204" width="48" height="16"/>
		</g>
	</g>
</g>
<g>
</g>
<g>
</g>
<g>
</g>
<g>
</g>
<g>
</g>
<g>
</g>
<g>
</g>
<g>
</g>
<g>
</g>
<g>
</g>
<g>
</g>
<g>
</g>
<g>
</g>
<g>
</g>
<g>
</g>
</svg>
