<?xml version="1.0" encoding="iso-8859-1"?>
<!-- Generator: Adobe Illustrator 19.0.0, SVG Export Plug-In . SVG Version: 6.00 Build 0)  -->
<svg version="1.1" id="Layer_1" xmlns="http://www.w3.org/2000/svg" xmlns:xlink="http://www.w3.org/1999/xlink" x="0px" y="0px"
	 viewBox="0 0 512 512" style="enable-background:new 0 0 512 512;" xml:space="preserve">
<g>
	<g>
		<path d="M418.133,0H93.867c-14.132,0.015-25.585,11.468-25.6,25.6v426.667c0.015,14.132,11.468,25.585,25.6,25.6h8.533v8.533
			c0.015,14.132,11.468,25.585,25.6,25.6h17.067c14.132-0.015,25.585-11.468,25.6-25.6v-8.533h170.667v8.533
			c0.015,14.132,11.468,25.585,25.6,25.6H384c14.132-0.015,25.585-11.468,25.6-25.6v-8.533h8.533
			c14.132-0.015,25.585-11.468,25.6-25.6V25.6C443.718,11.468,432.265,0.015,418.133,0z M153.6,486.4
			c-0.005,4.711-3.823,8.529-8.533,8.533H128c-4.711-0.005-8.529-3.822-8.533-8.533v-8.533H153.6V486.4z M392.533,486.4
			c-0.005,4.711-3.822,8.529-8.533,8.533h-17.067c-4.711-0.005-8.529-3.822-8.533-8.533v-8.533h34.133V486.4z M426.667,452.267
			c-0.005,4.711-3.822,8.529-8.533,8.533H93.867c-4.711-0.005-8.529-3.823-8.533-8.533V25.6c0.005-4.711,3.822-8.529,8.533-8.533
			h324.267c4.711,0.005,8.529,3.822,8.533,8.533V452.267z"/>
	</g>
</g>
<g>
	<g>
		<path d="M384,34.133H273.067c-6.319,0.02-12.404,2.394-17.067,6.658c-4.663-4.265-10.748-6.639-17.067-6.658H128
			c-14.132,0.015-25.585,11.468-25.6,25.6v358.4c0.015,14.132,11.468,25.585,25.6,25.6h110.933
			c6.319-0.02,12.404-2.394,17.067-6.658c4.663,4.265,10.748,6.639,17.067,6.658H384c14.132-0.015,25.585-11.468,25.6-25.6v-358.4
			C409.585,45.601,398.132,34.149,384,34.133z M247.467,418.133c-0.005,4.711-3.822,8.529-8.533,8.533H128
			c-4.711-0.005-8.529-3.822-8.533-8.533v-358.4c0.005-4.711,3.822-8.529,8.533-8.533h110.933c4.711,0.005,8.529,3.822,8.533,8.533
			V418.133z M392.533,418.133c-0.005,4.711-3.822,8.529-8.533,8.533H273.067c-4.711-0.005-8.529-3.822-8.533-8.533v-358.4
			c0.005-4.711,3.823-8.529,8.533-8.533H384c4.711,0.005,8.529,3.822,8.533,8.533V418.133z"/>
	</g>
</g>
<g>
	<g>
		<path d="M221.867,204.8c-4.713,0-8.533,3.821-8.533,8.533V256c0,4.713,3.82,8.533,8.533,8.533s8.533-3.82,8.533-8.533v-42.667
			C230.4,208.621,226.58,204.8,221.867,204.8z"/>
	</g>
</g>
<g>
	<g>
		<path d="M290.133,204.8c-4.713,0-8.533,3.821-8.533,8.533V256c-0.001,4.712,3.817,8.532,8.529,8.533c0.001,0,0.003,0,0.004,0
			c4.712,0.001,8.532-3.817,8.533-8.529c0-0.001,0-0.003,0-0.004v-42.667C298.667,208.621,294.846,204.8,290.133,204.8z"/>
	</g>
</g>
<g>
	<g>
		<path d="M168.058,70.767c-3.319-3.26-8.638-3.26-11.957,0l-17.067,17.067c-3.332,3.333-3.331,8.736,0.002,12.068
			c1.6,1.599,3.769,2.498,6.031,2.498c2.264,0.003,4.435-0.897,6.033-2.5l17.067-17.067
			C171.468,79.471,171.42,74.069,168.058,70.767z"/>
	</g>
</g>
<g>
	<g>
		<path d="M210.725,70.767c-3.319-3.26-8.639-3.26-11.958,0L139.034,130.5c-3.332,3.333-3.331,8.736,0.002,12.068
			c1.6,1.599,3.769,2.498,6.031,2.498c2.264,0.003,4.435-0.897,6.033-2.5l59.733-59.733
			C214.135,79.471,214.087,74.069,210.725,70.767z"/>
	</g>
</g>
<g>
	<g>
		<path d="M313.124,70.767c-3.319-3.26-8.638-3.26-11.957,0L284.1,87.834c-3.332,3.333-3.331,8.736,0.002,12.068
			c1.6,1.599,3.769,2.498,6.031,2.498c2.264,0.003,4.435-0.897,6.033-2.5l17.067-17.067
			C316.535,79.471,316.486,74.069,313.124,70.767z"/>
	</g>
</g>
<g>
	<g>
		<path d="M355.791,70.767c-3.319-3.26-8.638-3.26-11.958,0L284.1,130.5c-3.332,3.333-3.331,8.736,0.002,12.068
			c1.6,1.599,3.769,2.498,6.031,2.498c2.264,0.003,4.435-0.897,6.033-2.5L355.9,82.833
			C359.202,79.471,359.153,74.069,355.791,70.767z"/>
	</g>
</g>
<g>
</g>
<g>
</g>
<g>
</g>
<g>
</g>
<g>
</g>
<g>
</g>
<g>
</g>
<g>
</g>
<g>
</g>
<g>
</g>
<g>
</g>
<g>
</g>
<g>
</g>
<g>
</g>
<g>
</g>
</svg>
