<?xml version="1.0" encoding="iso-8859-1"?>
<!-- Generator: Adobe Illustrator 19.0.0, SVG Export Plug-In . SVG Version: 6.00 Build 0)  -->
<svg version="1.1" id="Capa_1" xmlns="http://www.w3.org/2000/svg" xmlns:xlink="http://www.w3.org/1999/xlink" x="0px" y="0px"
	 viewBox="0 0 479.975 479.975" style="enable-background:new 0 0 479.975 479.975;" xml:space="preserve">
<g>
	<g>
		<path d="M409.753,244.263c-0.007-0.007-0.015-0.015-0.022-0.022c-7.833-7.769-16.174-15.009-24.968-21.672l24.944-24.992
			c3.13-3.118,3.14-8.183,0.022-11.314c-0.007-0.007-0.015-0.015-0.022-0.022c-7.833-7.769-16.174-15.009-24.968-21.672
			l24.992-24.992c3.13-3.118,3.14-8.183,0.022-11.314c-0.007-0.007-0.015-0.015-0.022-0.022
			c-7.833-7.769-16.174-15.009-24.968-21.672l24.944-24.992c3.126-3.122,3.129-8.188,0.006-11.314
			c-0.002-0.002-0.004-0.004-0.006-0.006c-93.764-93.676-245.692-93.676-339.456,0c-3.126,3.122-3.129,8.188-0.006,11.314
			c0.002,0.002,0.004,0.004,0.006,0.006l24.992,24.992c-8.795,6.661-17.136,13.901-24.968,21.672
			c-3.13,3.118-3.14,8.183-0.022,11.314c0.007,0.007,0.015,0.015,0.022,0.022l24.992,24.992
			c-8.795,6.661-17.136,13.901-24.968,21.672c-3.13,3.118-3.14,8.183-0.022,11.314c0.007,0.007,0.015,0.015,0.022,0.022
			l24.992,24.992c-8.795,6.661-17.136,13.901-24.968,21.672c-3.13,3.118-3.14,8.183-0.022,11.314
			c0.007,0.007,0.015,0.015,0.022,0.022l24.992,24.992c-8.795,6.661-17.136,13.901-24.968,21.672
			c-1.538,1.478-2.422,3.508-2.456,5.64c-0.004,2.127,0.84,4.168,2.344,5.672l164.08,164.08c3.124,3.123,8.188,3.123,11.312,0
			l164.08-164.056c3.13-3.118,3.14-8.183,0.022-11.314c-0.007-0.007-0.015-0.015-0.022-0.022
			c-7.833-7.769-16.174-15.009-24.968-21.672l24.992-24.992C412.861,252.459,412.871,247.394,409.753,244.263z M92.139,80.833
			l-4.8-4.8c41.385-38.706,95.967-60.183,152.632-60.056c56.668-0.15,111.262,21.307,152.664,60l-4.8,4.8
			c-1.816-1.392-3.624-2.784-5.432-4.128l-9.584,12.928c1.192,0.88,2.4,1.8,3.56,2.704l-4.912,4.912
			c-1.744-1.144-3.568-2.136-5.336-3.2c-2.328-1.44-4.648-2.888-7.016-4.248c-2.816-1.6-5.68-3.12-8.552-4.616
			c-2.4-1.248-4.8-2.52-7.2-3.688c-2.936-1.4-5.92-2.672-8.904-4c-2.456-1.048-4.896-2.136-7.376-3.104
			c-3.064-1.2-6.176-2.24-9.288-3.312c-2.48-0.848-4.936-1.752-7.448-2.512c-3.2-0.992-6.48-1.808-9.736-2.656
			c-2.472-0.64-4.912-1.352-7.4-1.912c-3.44-0.8-6.936-1.368-10.4-2c-2.352-0.416-4.68-0.928-7.048-1.288
			c-3.92-0.576-7.88-0.952-11.84-1.344c-1.976-0.192-3.936-0.496-5.92-0.64c-6.032-0.456-12-0.696-18.032-0.696s-12,0.24-18,0.68
			c-1.984,0.144-3.936,0.448-5.912,0.64c-4,0.392-7.928,0.8-11.848,1.344c-2.4,0.36-4.704,0.872-7.064,1.296
			c-3.472,0.624-6.96,1.216-10.4,1.992c-2.496,0.56-4.952,1.28-7.424,1.92c-3.248,0.848-6.504,1.664-9.704,2.64
			c-2.52,0.8-4.984,1.672-7.472,2.528c-3.104,1.064-6.208,2.104-9.264,3.296c-2.488,0.976-4.928,2.064-7.384,3.12
			c-2.984,1.28-5.968,2.552-8.904,3.952c-2.4,1.168-4.8,2.4-7.2,3.688c-2.88,1.496-5.744,3-8.568,4.616
			c-2.352,1.352-4.656,2.792-6.968,4.224c-1.784,1.104-3.616,2.104-5.376,3.256l-4.912-4.912c1.184-0.904,2.4-1.824,3.56-2.704
			l-9.56-12.848C95.763,78.049,93.955,79.441,92.139,80.833z M87.323,134.041c7.772-7.233,16.043-13.911,24.752-19.984
			c37.498-26.191,82.157-40.186,127.896-40.08c5.76,0,11.488,0.216,17.184,0.648c6.776,0.512,13.48,1.424,20.144,2.536
			c32.569,5.37,63.518,17.979,90.568,36.896c8.702,6.064,16.968,12.731,24.736,19.952l-0.24,0.24
			c-0.68-0.512-1.368-1.048-2.048-1.552l-9.472,12.88l0.112,0.08l-9.496,9.52c-0.392-0.248-0.8-0.464-1.2-0.712
			c-4.533-2.933-9.168-5.715-13.904-8.344c-0.8-0.464-1.672-0.896-2.512-1.344c-4.976-2.672-10.008-5.224-15.128-7.52
			c-62.765-28.352-134.691-28.352-197.456,0c-5.136,2.304-10.176,4.856-15.152,7.528c-0.84,0.456-1.68,0.888-2.512,1.344
			c-4.747,2.624-9.392,5.413-13.936,8.368c-0.384,0.24-0.8,0.448-1.176,0.696L87.323,134.041z M87.331,192.033
			c7.768-7.228,16.034-13.903,24.736-19.976h0.008c64.695-44.978,148.263-52.658,220.072-20.224
			c12.519,5.616,24.485,12.389,35.744,20.232c8.702,6.064,16.968,12.731,24.736,19.952l-21.16,21.152
			c-0.392-0.256-0.8-0.464-1.2-0.712c-4.533-2.933-9.157-5.709-13.872-8.328c-0.856-0.472-1.712-0.912-2.576-1.376
			c-4.952-2.664-9.968-5.2-15.064-7.488c-14.394-6.588-29.431-11.665-44.872-15.152c-35.457-8.132-72.295-8.132-107.752,0
			c-15.437,3.485-30.471,8.557-44.864,15.136c-5.136,2.304-10.176,4.856-15.152,7.528c-0.84,0.456-1.68,0.888-2.512,1.344
			c-4.747,2.624-9.392,5.413-13.936,8.368c-0.384,0.24-0.8,0.448-1.176,0.696L87.331,192.033z M392.627,308.009l-9.368,9.36
			l-0.88-0.672l-4.512,6.072L239.971,460.665L102.083,322.777l-4.512-6.072l-0.88,0.672l-9.368-9.36
			c7.77-7.225,16.038-13.895,24.744-19.96h0.008c11.276-7.851,23.261-14.63,35.8-20.248c13.427-6.141,27.454-10.873,41.856-14.12
			c33.088-7.588,67.464-7.588,100.552,0c14.404,3.257,28.434,7.994,41.864,14.136c12.519,5.616,24.485,12.389,35.744,20.232
			C376.594,294.119,384.86,300.786,392.627,308.009z M386.659,255.977c-1.424-1.096-2.856-2.2-4.288-3.264l-9.552,12.864
			c0.8,0.6,1.6,1.224,2.4,1.84l-3.784,3.776c-0.392-0.256-0.8-0.464-1.2-0.712c-4.533-2.939-9.157-5.715-13.872-8.328
			c-0.856-0.472-1.712-0.912-2.576-1.376c-4.952-2.664-9.968-5.2-15.064-7.488c-14.394-6.587-29.431-11.665-44.872-15.152
			c-35.457-8.132-72.295-8.132-107.752,0c-15.437,3.485-30.471,8.557-44.864,15.136c-5.136,2.304-10.176,4.856-15.152,7.528
			c-0.84,0.456-1.68,0.888-2.512,1.344c-4.747,2.624-9.392,5.413-13.936,8.368c-0.384,0.24-0.8,0.448-1.176,0.696l-3.784-3.776
			c0.8-0.616,1.6-1.24,2.4-1.84l-9.504-12.888c-1.432,1.064-2.864,2.168-4.288,3.264l-5.96-5.952
			c7.772-7.223,16.04-13.893,24.744-19.96h0.008c11.276-7.851,23.261-14.63,35.8-20.248c13.427-6.141,27.454-10.872,41.856-14.12
			c33.088-7.588,67.464-7.588,100.552,0c14.404,3.257,28.434,7.994,41.864,14.136c12.519,5.616,24.485,12.389,35.744,20.232
			c8.702,6.064,16.968,12.731,24.736,19.952L386.659,255.977z"/>
	</g>
</g>
<g>
	<g>
		<path d="M152.971,283.617c-4.854,2.192-9.707,4.571-14.56,7.136l7.464,14.144c4.56-2.405,9.117-4.637,13.672-6.696
			L152.971,283.617z"/>
	</g>
</g>
<g>
	<g>
		<path d="M264.483,265.529l-2.008,15.88c4.928,0.624,9.92,1.464,14.848,2.504l3.296-15.656
			C275.267,267.129,269.835,266.209,264.483,265.529z"/>
	</g>
</g>
<g>
	<g>
		<path d="M231.763,264.137l0.688,16c5.013-0.224,10.021-0.224,15.024,0l0.672-16C242.651,263.913,237.211,263.905,231.763,264.137z
			"/>
	</g>
</g>
<g>
	<g>
		<path d="M124.331,298.705c-4.539,2.736-9.072,5.629-13.6,8.68l8.952,13.264c4.299-2.896,8.597-5.64,12.896-8.232L124.331,298.705z
			"/>
	</g>
</g>
<g>
	<g>
		<path d="M326.955,283.601l-6.592,14.576c4.56,2.059,9.12,4.293,13.68,6.704l7.464-14.152
			C336.654,288.164,331.803,285.788,326.955,283.601z"/>
	</g>
</g>
<g>
	<g>
		<path d="M215.435,265.577c-5.376,0.68-10.808,1.6-16.144,2.728l3.296,15.656c4.92-1.08,9.912-1.928,14.864-2.552L215.435,265.577z
			"/>
	</g>
</g>
<g>
	<g>
		<path d="M296.467,272.249l-4.496,15.352c4.752,1.392,9.6,3,14.4,4.8l5.552-15.008
			C306.787,275.481,301.579,273.745,296.467,272.249z"/>
	</g>
</g>
<g>
	<g>
		<path d="M183.475,272.257c-5.144,1.504-10.344,3.24-15.472,5.16l5.6,14.984c4.768-1.784,9.568-3.392,14.368-4.792L183.475,272.257
			z"/>
	</g>
</g>
<g>
	<g>
		<path d="M355.563,298.689l-8.264,13.704c4.304,2.592,8.611,5.339,12.92,8.24l8.944-13.28
			C364.635,304.302,360.102,301.414,355.563,298.689z"/>
	</g>
</g>
<g>
	<g>
		<path d="M124.331,234.705c-4.539,2.736-9.072,5.629-13.6,8.68l8.952,13.264c4.299-2.896,8.597-5.64,12.896-8.232L124.331,234.705z
			"/>
	</g>
</g>
<g>
	<g>
		<path d="M326.955,219.601l-6.592,14.576c4.56,2.059,9.12,4.293,13.68,6.704l7.464-14.152
			C336.654,224.158,331.803,221.782,326.955,219.601z"/>
	</g>
</g>
<g>
	<g>
		<path d="M264.483,201.529l-2.008,15.88c4.928,0.624,9.92,1.464,14.848,2.504l3.296-15.656
			C275.267,203.129,269.835,202.209,264.483,201.529z"/>
	</g>
</g>
<g>
	<g>
		<path d="M355.563,234.689l-8.264,13.704c4.304,2.592,8.611,5.339,12.92,8.24l8.944-13.28
			C364.635,240.302,360.102,237.414,355.563,234.689z"/>
	</g>
</g>
<g>
	<g>
		<path d="M296.467,208.249l-4.496,15.352c4.752,1.392,9.6,3,14.4,4.8l5.552-15.008
			C306.787,211.481,301.579,209.745,296.467,208.249z"/>
	</g>
</g>
<g>
	<g>
		<path d="M231.763,200.137l0.688,16c5.013-0.224,10.021-0.224,15.024,0l0.672-16C242.651,199.905,237.211,199.913,231.763,200.137z
			"/>
	</g>
</g>
<g>
	<g>
		<path d="M152.971,219.617c-4.854,2.192-9.707,4.571-14.56,7.136l7.464,14.144c4.56-2.405,9.117-4.637,13.672-6.696
			L152.971,219.617z"/>
	</g>
</g>
<g>
	<g>
		<path d="M183.475,208.257c-5.144,1.504-10.344,3.24-15.472,5.16l5.6,14.984c4.768-1.784,9.568-3.392,14.368-4.792L183.475,208.257
			z"/>
	</g>
</g>
<g>
	<g>
		<path d="M215.435,201.577c-5.376,0.68-10.808,1.6-16.144,2.728l3.296,15.656c4.92-1.08,9.912-1.928,14.864-2.552L215.435,201.577z
			"/>
	</g>
</g>
<g>
	<g>
		<path d="M361.899,178.041l-8,13.856c4.581,2.667,9.139,5.477,13.672,8.432l8.784-13.376
			C371.555,183.806,366.736,180.836,361.899,178.041z"/>
	</g>
</g>
<g>
	<g>
		<path d="M265.579,145.409l-1.808,15.896c5.224,0.592,10.52,1.4,15.728,2.4l2.984-15.728
			C276.883,146.913,271.195,146.049,265.579,145.409z"/>
	</g>
</g>
<g>
	<g>
		<path d="M180.715,151.833c-5.448,1.456-10.944,3.128-16.344,4.984l5.2,15.16c5.04-1.76,10.176-3.328,15.264-4.68L180.715,151.833z
			"/>
	</g>
</g>
<g>
	<g>
		<path d="M214.291,145.441c-5.6,0.648-11.328,1.52-16.912,2.576l3,15.72c5.192-0.984,10.488-1.792,15.744-2.4L214.291,145.441z"/>
	</g>
</g>
<g>
	<g>
		<path d="M231.387,144.129l0.608,16c5.317-0.192,10.618-0.192,15.904,0l0.608-16C242.787,143.897,237.083,143.913,231.387,144.129z
			"/>
	</g>
</g>
<g>
	<g>
		<path d="M117.979,178.081c-4.848,2.8-9.667,5.771-14.456,8.912l8.8,13.376c4.517-2.976,9.069-5.789,13.656-8.44L117.979,178.081z"
			/>
	</g>
</g>
<g>
	<g>
		<path d="M148.443,162.905c-5.168,2.168-10.4,4.568-15.488,7.12l7.144,14.312c4.8-2.392,9.696-4.648,14.544-6.68L148.443,162.905z"
			/>
	</g>
</g>
<g>
	<g>
		<path d="M299.163,151.801l-4.12,15.456c5.088,1.36,10.216,2.92,15.248,4.656l5.2-15.136
			C310.107,154.929,304.611,153.257,299.163,151.801z"/>
	</g>
</g>
<g>
	<g>
		<path d="M331.443,162.873l-6.208,14.752c4.88,2.048,9.731,4.275,14.552,6.68l7.136-14.32
			C341.811,167.441,336.603,165.049,331.443,162.873z"/>
	</g>
</g>
<g>
	<g>
		<path d="M264.291,84.385l-1.12,15.96c5.296,0.384,10.608,0.968,15.792,1.76l2.368-15.824
			C275.731,85.433,270.003,84.801,264.291,84.385z"/>
	</g>
</g>
<g>
	<g>
		<path d="M330.827,99.577l-5.824,14.896c4.92,1.928,9.84,4.064,14.624,6.344l6.888-14.44
			C341.387,103.929,336.115,101.641,330.827,99.577z"/>
	</g>
</g>
<g>
	<g>
		<path d="M179.755,94.265c-5.384,1.6-10.824,3.48-16.144,5.488l5.64,14.976c5-1.952,10.096-3.656,15.16-5.152L179.755,94.265z"/>
	</g>
</g>
<g>
	<g>
		<path d="M298.163,89.473l-3.576,15.592c5.128,1.176,10.296,2.568,15.368,4.144l4.752-15.28
			C309.243,92.233,303.683,90.729,298.163,89.473z"/>
	</g>
</g>
<g>
	<g>
		<path d="M247.171,83.825c-5.648,0-11.408,0.272-17.12,0.736l1.296,15.944c5.304-0.432,10.648-0.656,15.888-0.68L247.171,83.825z"
			/>
	</g>
</g>
<g>
	<g>
		<path d="M213.043,86.569c-5.6,0.864-11.2,1.952-16.8,3.24l3.592,15.592c5.224-1.192,10.488-2.224,15.672-3.024L213.043,86.569z"/>
	</g>
</g>
<g>
	<g>
		<path d="M361.667,114.201l-7.816,13.96c4.613,2.587,9.187,5.344,13.72,8.272l8.688-13.432
			C371.459,119.881,366.523,116.929,361.667,114.201z"/>
	</g>
</g>
<g>
	<g>
		<path d="M117.763,121.905c-4.8,2.864-9.579,5.88-14.336,9.048l8.888,13.304c4.512-3.013,9.056-5.88,13.632-8.6L117.763,121.905z"
			/>
	</g>
</g>
<g>
	<g>
		<path d="M147.867,106.185c-5.125,2.304-10.224,4.779-15.296,7.424l7.408,14.184c4.794-2.485,9.613-4.824,14.456-7.016
			L147.867,106.185z"/>
	</g>
</g>
<g>
	<g>
		<path d="M124.331,58.705c-4.539,2.736-9.072,5.629-13.6,8.68l8.952,13.264c4.298-2.896,8.597-5.64,12.896-8.232L124.331,58.705z"
			/>
	</g>
</g>
<g>
	<g>
		<path d="M296.467,32.249l-4.496,15.352c4.752,1.392,9.6,3,14.4,4.8l5.552-15.008C306.787,35.481,301.579,33.745,296.467,32.249z"
			/>
	</g>
</g>
<g>
	<g>
		<path d="M215.435,25.577c-5.376,0.68-10.808,1.6-16.144,2.728l3.296,15.656c4.92-1.08,9.912-1.928,14.864-2.552L215.435,25.577z"
			/>
	</g>
</g>
<g>
	<g>
		<path d="M231.763,24.137l0.688,16c5.013-0.224,10.021-0.224,15.024,0l0.672-16C242.651,23.913,237.211,23.905,231.763,24.137z"/>
	</g>
</g>
<g>
	<g>
		<path d="M326.955,43.601l-6.592,14.576c4.56,2.053,9.12,4.288,13.68,6.704l7.464-14.152
			C336.654,48.164,331.803,45.788,326.955,43.601z"/>
	</g>
</g>
<g>
	<g>
		<path d="M355.563,58.689l-8.264,13.704c4.304,2.592,8.611,5.339,12.92,8.24l8.944-13.28
			C364.635,64.302,360.102,61.414,355.563,58.689z"/>
	</g>
</g>
<g>
	<g>
		<path d="M264.483,25.529l-2.008,15.88c4.928,0.624,9.92,1.464,14.848,2.504l3.296-15.656
			C275.267,27.129,269.835,26.209,264.483,25.529z"/>
	</g>
</g>
<g>
	<g>
		<path d="M152.971,43.617c-4.853,2.192-9.707,4.571-14.56,7.136l7.464,14.144c4.56-2.405,9.117-4.637,13.672-6.696L152.971,43.617z
			"/>
	</g>
</g>
<g>
	<g>
		<path d="M183.475,32.257c-5.144,1.504-10.344,3.24-15.472,5.16l5.6,14.984c4.768-1.784,9.568-3.392,14.368-4.792L183.475,32.257z"
			/>
	</g>
</g>
<g>
</g>
<g>
</g>
<g>
</g>
<g>
</g>
<g>
</g>
<g>
</g>
<g>
</g>
<g>
</g>
<g>
</g>
<g>
</g>
<g>
</g>
<g>
</g>
<g>
</g>
<g>
</g>
<g>
</g>
</svg>
