<?xml version="1.0" encoding="iso-8859-1"?>
<!-- Generator: Adobe Illustrator 19.0.0, SVG Export Plug-In . SVG Version: 6.00 Build 0)  -->
<svg version="1.1" id="Layer_1" xmlns="http://www.w3.org/2000/svg" xmlns:xlink="http://www.w3.org/1999/xlink" x="0px" y="0px"
	 viewBox="0 0 512.001 512.001" style="enable-background:new 0 0 512.001 512.001;" xml:space="preserve">
<polygon style="fill:#9EF3D3;" points="247.602,236.037 65.154,418.485 8.167,494.722 13.941,500.496 270.701,259.136 "/>
<g>
	<polygon style="fill:#6DDEB4;" points="263.001,251.436 13.941,500.496 19.717,506.271 95.953,449.283 278.4,266.836 	"/>
	<path style="fill:#6DDEB4;" d="M486.292,112.842c23.389-23.388,23.389-61.308,0-84.697l-238.69,238.69l15.399,15.399l57.748-3.85
		L486.292,112.842z"/>
</g>
<path style="fill:#9EF3D3;" d="M486.292,28.145c-23.388-23.388-61.308-23.388-84.697,0L236.053,193.689l-3.85,57.748l15.399,15.399
	l50.048-11.55L463.193,89.743C486.582,66.355,496.924,38.776,486.292,28.145z"/>
<path d="M492.068,19.934C479.213,7.079,462.123,0.001,443.944,0.001s-35.269,7.079-48.123,19.933L230.277,185.477
	c-1.399,1.399-2.242,3.258-2.374,5.231l-3.646,54.686L59.38,410.273c-0.277,0.277-0.532,0.572-0.767,0.885L1.626,487.396
	c-2.43,3.251-2.104,7.794,0.767,10.664l11.549,11.549c1.583,1.583,3.674,2.392,5.777,2.392c1.711,0,3.429-0.536,4.887-1.626
	l76.237-56.988c0.314-0.234,0.609-0.49,0.885-0.767l164.879-164.877l54.687-3.646c1.974-0.132,3.833-0.976,5.232-2.374
	l165.541-165.543c12.856-12.853,19.935-29.945,19.935-48.123S504.921,32.787,492.068,19.934z M480.517,104.631L317.144,268.004
	l-54.687,3.646c-1.974,0.132-3.833,0.976-5.232,2.374L90.594,440.657l-70.102,52.402l-1.548-1.548l52.402-70.102l166.632-166.633
	c1.399-1.399,2.242-3.258,2.374-5.231l3.646-54.686L407.372,31.483c20.166-20.166,52.979-20.166,73.146,0
	c9.771,9.77,15.15,22.758,15.15,36.574C495.666,81.873,490.287,94.861,480.517,104.631z"/>
<g>
</g>
<g>
</g>
<g>
</g>
<g>
</g>
<g>
</g>
<g>
</g>
<g>
</g>
<g>
</g>
<g>
</g>
<g>
</g>
<g>
</g>
<g>
</g>
<g>
</g>
<g>
</g>
<g>
</g>
</svg>
