<?xml version="1.0" encoding="iso-8859-1"?>
<!-- Generator: Adobe Illustrator 19.0.0, SVG Export Plug-In . SVG Version: 6.00 Build 0)  -->
<svg version="1.1" id="Capa_1" xmlns="http://www.w3.org/2000/svg" xmlns:xlink="http://www.w3.org/1999/xlink" x="0px" y="0px"
	 viewBox="0 0 470 470" style="enable-background:new 0 0 470 470;" xml:space="preserve">
<g>
	<path d="M343.499,270.788h-50.201V74.961c0-11.14-7.554-20.544-17.807-23.374V15h1.805c4.143,0,7.5-3.358,7.5-7.5
		s-3.357-7.5-7.5-7.5h-84.592c-4.143,0-7.5,3.358-7.5,7.5s3.357,7.5,7.5,7.5h1.805v36.587c-10.253,2.83-17.807,12.234-17.807,23.374
		v25.75h-50.201c-12.406,0-22.499,10.093-22.499,22.5c0,12.406,10.093,22.499,22.499,22.499h50.201v183.73
		c0,17.47,12.391,32.097,28.846,35.563v13.23h-1.889c-4.143,0-7.5,3.358-7.5,7.5v45.129c0,4.142,3.357,7.5,7.5,7.5h1.889V462.5
		c0,2.262,1.021,4.403,2.778,5.827c1.348,1.092,3.019,1.673,4.722,1.673c0.519,0,1.039-0.054,1.555-0.163l43.904-9.305
		c3.466-0.734,5.945-3.794,5.945-7.337v-14.832h1.889c4.143,0,7.5-3.358,7.5-7.5v-45.129c0-4.142-3.357-7.5-7.5-7.5h-1.889v-13.23
		c16.454-3.466,28.846-18.093,28.846-35.563v-13.654h50.201c12.406,0,22.499-10.093,22.499-22.499S355.905,270.788,343.499,270.788z
		 M260.491,15v35.711h-50.982V15H260.491z M119.002,123.211c0-4.135,3.364-7.5,7.499-7.5h7.5v14.999h-7.5
		C122.366,130.71,119.002,127.346,119.002,123.211z M258.841,393.234v30.129h-47.682v-30.129H258.841z M249.452,447.118
		l-28.904,6.126v-14.881h28.904V447.118z M220.548,378.234v-12.448h28.904v12.448H220.548z M285.798,300.786
		c-4.143,0-7.5,3.358-7.5,7.5v21.154c0,11.77-9.575,21.346-21.346,21.346h-43.904c-11.771,0-21.346-9.576-21.346-21.346V138.21
		c0-4.142-3.357-7.5-7.5-7.5h-35.201v-14.999h35.201c4.143,0,7.5-3.358,7.5-7.5v-33.25c0-5.1,4.149-9.25,9.249-9.25h68.098
		c5.1,0,9.249,4.149,9.249,9.25v203.327c0,4.142,3.357,7.5,7.5,7.5h35.201v14.999H285.798z M343.499,300.786h-7.5v-14.999h7.5
		c4.135,0,7.499,3.364,7.499,7.5C350.998,297.422,347.634,300.786,343.499,300.786z"/>
	<path d="M256.952,79.711c-4.143,0-7.5,3.358-7.5,7.5v242.075c0,4.142,3.357,7.5,7.5,7.5s7.5-3.358,7.5-7.5V87.211
		C264.452,83.069,261.095,79.711,256.952,79.711z"/>
	<path d="M213.048,79.711c-4.143,0-7.5,3.358-7.5,7.5v242.075c0,4.142,3.357,7.5,7.5,7.5s7.5-3.358,7.5-7.5V87.211
		C220.548,83.069,217.19,79.711,213.048,79.711z"/>
</g>
<g>
</g>
<g>
</g>
<g>
</g>
<g>
</g>
<g>
</g>
<g>
</g>
<g>
</g>
<g>
</g>
<g>
</g>
<g>
</g>
<g>
</g>
<g>
</g>
<g>
</g>
<g>
</g>
<g>
</g>
</svg>
