<?xml version="1.0" encoding="iso-8859-1"?>
<!-- Generator: Adobe Illustrator 19.0.0, SVG Export Plug-In . SVG Version: 6.00 Build 0)  -->
<svg version="1.1" id="Capa_1" xmlns="http://www.w3.org/2000/svg" xmlns:xlink="http://www.w3.org/1999/xlink" x="0px" y="0px"
	 viewBox="0 0 470 470" style="enable-background:new 0 0 470 470;" xml:space="preserve">
<g>
	<path d="M367.678,92.738l-54.536,54.109c-2.94,2.918-2.959,7.666-0.042,10.606c1.466,1.479,3.395,2.218,5.324,2.218
		c1.91,0,3.82-0.725,5.282-2.176l54.536-54.109c2.94-2.918,2.959-7.666,0.042-10.606C375.367,89.838,370.618,89.821,367.678,92.738z
		"/>
	<path d="M467.782,122.309L428.83,83.662l18.568-18.424l8.893,8.855c1.463,1.457,3.377,2.186,5.292,2.186
		c1.924,0,3.849-0.736,5.314-2.208c2.923-2.936,2.913-7.684-0.022-10.606l-13.656-13.598c-0.145-0.175-0.296-0.347-0.459-0.512
		c-0.19-0.192-0.389-0.37-0.594-0.537L407.974,4.812c-2.934-2.921-7.683-2.914-10.606,0.022c-2.923,2.936-2.913,7.684,0.022,10.606
		l8.828,8.791l-18.643,18.497l-10.859-10.774c-0.005-0.004-28.178-27.957-28.178-27.957c-1.472-1.46-3.476-2.231-5.555-2.171
		c-2.072,0.075-4.021,1.005-5.382,2.568L158.217,210.29c-2.597,2.981-2.434,7.466,0.373,10.251l14.02,13.91
		c0.006,0.006,1.717,1.704,1.717,1.704l-47.083,46.715c-1.419,1.408-2.218,3.325-2.218,5.324s0.798,3.916,2.217,5.324l8.578,8.511
		L33.774,403.295c-0.176,0.174-0.343,0.357-0.501,0.549l-31.557,38.23c-2.468,2.99-2.25,7.368,0.502,10.099L16.157,466
		c1.455,1.443,3.365,2.176,5.283,2.176c1.67,0,3.345-0.555,4.729-1.68l38.527-31.316c0.192-0.156,0.376-0.322,0.552-0.497
		l102.127-101.345l8.77,8.701c1.462,1.45,3.372,2.176,5.283,2.176c1.91,0,3.82-0.726,5.282-2.176l47.168-46.798l1.754,1.741
		c1.462,1.45,3.372,2.176,5.282,2.176s3.821-0.726,5.282-2.176L413.266,131.22l22.852,22.673c2.924,2.9,7.64,2.9,10.565,0
		l21.1-20.936c1.419-1.408,2.217-3.325,2.217-5.324S469.202,123.717,467.782,122.309z M416.847,34.816l19.922,19.838l-18.588,18.443
		l-19.958-19.802L416.847,34.816z M54.947,423.775l-33.01,26.831l-4.296-4.261l26.963-32.665l101.864-101.085l10.259,10.179
		L54.947,423.775z M181.428,326.15l-8.713-8.645c-0.036-0.036-29.541-29.31-29.541-29.31l41.801-41.474l38.254,37.955
		L181.428,326.15z M441.4,138.003l-22.852-22.673c-2.924-2.9-7.642-2.9-10.564,0L240.915,281.092l-52.326-51.916L332.655,86.338
		c2.941-2.917,2.961-7.665,0.045-10.606c-2.917-2.942-7.665-2.962-10.607-0.046L177.94,218.61l-3.796-3.766l169.51-194.562
		l17.087,16.953l-24.502,24.31c-2.94,2.918-2.959,7.666-0.042,10.606c1.466,1.479,3.395,2.218,5.324,2.218
		c1.91,0,3.82-0.725,5.282-2.176l24.586-24.394l80.462,79.832L441.4,138.003z"/>
</g>
<g>
</g>
<g>
</g>
<g>
</g>
<g>
</g>
<g>
</g>
<g>
</g>
<g>
</g>
<g>
</g>
<g>
</g>
<g>
</g>
<g>
</g>
<g>
</g>
<g>
</g>
<g>
</g>
<g>
</g>
</svg>
