<?xml version="1.0" encoding="iso-8859-1"?>
<!-- Generator: Adobe Illustrator 19.0.0, SVG Export Plug-In . SVG Version: 6.00 Build 0)  -->
<svg version="1.1" id="Capa_1" xmlns="http://www.w3.org/2000/svg" xmlns:xlink="http://www.w3.org/1999/xlink" x="0px" y="0px"
	 viewBox="0 0 512 512" style="enable-background:new 0 0 512 512;" xml:space="preserve">
<g>
	<g>
		<path d="M467,152H272V90h15c8.284,0,15-6.716,15-15V15c0-8.284-6.716-15-15-15H105c-8.284,0-15,6.716-15,15v60
			c0,8.284,6.716,15,15,15h15v62H45c-24.813,0-45,20.187-45,45v270c0,24.813,20.187,45,45,45h422c24.813,0,45-20.187,45-45V280.562
			c0-0.045,0.001-0.089,0-0.134V197C512,172.187,491.813,152,467,152z M120,30h152v30c-5.966,0-147.68,0-152,0V30z M481.999,467
			c0.001,8.271-6.728,15-14.999,15H45c-8.271,0-15-6.729-15-15V290.902c3.118-1.618,6.148-3.406,9.069-5.354
			c22.282-14.855,51.077-14.855,73.359,0c32.213,21.477,76.206,21.624,108.641,0c22.282-14.855,51.077-14.855,73.359,0
			c32.434,21.624,74.295,21.565,106.641,0c22.283-14.854,51.077-14.855,73.36,0c2.45,1.633,4.98,3.149,7.57,4.552V467z M482,255.23
			c-30.866-16.054-68.129-14.273-97.571,5.356c-22.283,14.854-51.076,14.855-73.359,0c-32.391-21.594-74.25-21.594-106.641,0
			c-22.185,14.79-53.173,14.792-75.359,0c-29.92-19.947-67.915-21.454-99.07-4.547V197c0-8.271,6.729-15,15-15h90
			c8.284,0,15-6.716,15-15V90h92v77c0,8.284,6.716,15,15,15h210c8.271,0,15,6.729,15,15V255.23z"/>
	</g>
</g>
<g>
</g>
<g>
</g>
<g>
</g>
<g>
</g>
<g>
</g>
<g>
</g>
<g>
</g>
<g>
</g>
<g>
</g>
<g>
</g>
<g>
</g>
<g>
</g>
<g>
</g>
<g>
</g>
<g>
</g>
</svg>
