<?xml version="1.0" encoding="iso-8859-1"?>
<!-- Generator: Adobe Illustrator 19.0.0, SVG Export Plug-In . SVG Version: 6.00 Build 0)  -->
<svg version="1.1" id="Capa_1" xmlns="http://www.w3.org/2000/svg" xmlns:xlink="http://www.w3.org/1999/xlink" x="0px" y="0px"
	 viewBox="0 0 470 470" style="enable-background:new 0 0 470 470;" xml:space="preserve">
<g>
	<path d="M462.5,151.25h-30c-4.143,0-7.5,3.358-7.5,7.5v22.5h-35v-120h2.5c4.143,0,7.5-3.358,7.5-7.5s-3.357-7.5-7.5-7.5h-85
		c-4.143,0-7.5,3.358-7.5,7.5s3.357,7.5,7.5,7.5h2.5v120h-35v-120h2.5c4.143,0,7.5-3.358,7.5-7.5s-3.357-7.5-7.5-7.5h-85
		c-4.143,0-7.5,3.358-7.5,7.5s3.357,7.5,7.5,7.5h2.5v120h-35v-120h2.5c4.143,0,7.5-3.358,7.5-7.5s-3.357-7.5-7.5-7.5h-85
		c-4.143,0-7.5,3.358-7.5,7.5s3.357,7.5,7.5,7.5H80v120H45v-22.5c0-4.142-3.357-7.5-7.5-7.5h-30c-4.143,0-7.5,3.358-7.5,7.5v257.5
		c0,4.142,3.357,7.5,7.5,7.5h30c4.143,0,7.5-3.358,7.5-7.5V377.5h380v38.75c0,4.142,3.357,7.5,7.5,7.5h30c4.143,0,7.5-3.358,7.5-7.5
		v-257.5C470,154.608,466.643,151.25,462.5,151.25z M325,61.25h50v120h-50V61.25z M325,196.25h50v95c0,13.785-11.215,25-25,25
		s-25-11.215-25-25V196.25z M210,61.25h50v120h-50V61.25z M210,196.25h50v95c0,13.785-11.215,25-25,25s-25-11.215-25-25V196.25z
		 M95,61.25h50v120H95V61.25z M95,196.25h50v95c0,13.785-11.215,25-25,25s-25-11.215-25-25V196.25z M30,408.75H15v-242.5h15V408.75z
		 M45,362.5V196.25h35v95c0,22.056,17.944,40,40,40s40-17.944,40-40v-95h35v95c0,22.056,17.944,40,40,40s40-17.944,40-40v-95h35v95
		c0,22.056,17.944,40,40,40s40-17.944,40-40v-95h35V362.5H45z M455,408.75h-15v-242.5h15V408.75z"/>
</g>
<g>
</g>
<g>
</g>
<g>
</g>
<g>
</g>
<g>
</g>
<g>
</g>
<g>
</g>
<g>
</g>
<g>
</g>
<g>
</g>
<g>
</g>
<g>
</g>
<g>
</g>
<g>
</g>
<g>
</g>
</svg>
