<?xml version="1.0" encoding="iso-8859-1"?>
<!-- Generator: Adobe Illustrator 19.0.0, SVG Export Plug-In . SVG Version: 6.00 Build 0)  -->
<svg version="1.1" id="Capa_1" xmlns="http://www.w3.org/2000/svg" xmlns:xlink="http://www.w3.org/1999/xlink" x="0px" y="0px"
	 viewBox="0 0 470 470" style="enable-background:new 0 0 470 470;" xml:space="preserve">
<g>
	<path d="M376.093,35.392L224.216,0.996c-0.118-0.026-0.235-0.05-0.354-0.071c-16.893-2.978-33.729,1.31-46.191,11.767
		c-12.462,10.456-19.609,26.291-19.609,43.445V125h-22.5c-4.142,0-7.5,3.358-7.5,7.5V150h-2.5c-4.142,0-7.5,3.358-7.5,7.5
		s3.358,7.5,7.5,7.5h2.5v10.598c-22.64,3.607-40,23.263-40,46.902v210c0,20.678,16.822,37.5,37.5,37.5h110
		c20.677,0,37.499-16.822,37.499-37.5v-210c0-23.639-17.36-43.295-39.999-46.902V165h2.5c4.142,0,7.499-3.358,7.499-7.5
		s-3.357-7.5-7.499-7.5h-2.5v-17.5c0-4.142-3.358-7.5-7.5-7.5h-22.5V56.137c0-3.874,1.255-7.061,3.533-8.973
		c2.278-1.91,5.637-2.593,9.457-1.922c0.117,0.021,0.235,0.039,0.353,0.054L370.887,64.92c3.975,0.5,7.636-2.198,8.331-6.138
		l2.604-14.772C382.518,40.068,379.996,36.276,376.093,35.392z M103.062,432.5v-210c0-17.92,14.58-32.5,32.5-32.5h22.5v265h-32.5
		C113.155,455,103.062,444.907,103.062,432.5z M188.062,455h-15V190h15V455z M218.062,182.5c0,4.142,3.358,7.5,7.5,7.5
		c17.92,0,32.499,14.58,32.499,32.5v210c0,12.407-10.094,22.5-22.499,22.5h-32.5V182.5c0-4.142-3.358-7.5-7.5-7.5h-52.5v-10h75
		V182.5z M218.062,150h-75v-10h75V150z M365.687,49.139L218.462,30.436c-8.19-1.392-15.82,0.466-21.508,5.237
		c-5.733,4.813-8.891,12.08-8.891,20.463V125h-15V56.137c0-12.709,5.194-24.355,14.251-31.955
		c9.015-7.565,21.316-10.664,33.771-8.515L365.81,48.443L365.687,49.139z"/>
</g>
<g>
</g>
<g>
</g>
<g>
</g>
<g>
</g>
<g>
</g>
<g>
</g>
<g>
</g>
<g>
</g>
<g>
</g>
<g>
</g>
<g>
</g>
<g>
</g>
<g>
</g>
<g>
</g>
<g>
</g>
</svg>
