<?xml version="1.0" encoding="iso-8859-1"?>
<!-- Generator: Adobe Illustrator 19.0.0, SVG Export Plug-In . SVG Version: 6.00 Build 0)  -->
<svg version="1.1" id="Capa_1" xmlns="http://www.w3.org/2000/svg" xmlns:xlink="http://www.w3.org/1999/xlink" x="0px" y="0px"
	 viewBox="0 0 512.001 512.001" style="enable-background:new 0 0 512.001 512.001;" xml:space="preserve">
<g>
	<g>
		<path d="M453.326,422.26H128.541v-15.669c13.81-4.674,24.748-15.613,29.423-29.423h233.134c8.281,0,14.995-6.714,14.995-14.995
			s-6.714-14.995-14.995-14.995H157.965c-4.675-13.81-15.613-24.748-29.423-29.424V175.571c13.81-4.675,24.748-15.613,29.423-29.424
			h116.949l-40.198,143.575c-2.822,10.08-0.813,20.644,5.512,28.985c6.326,8.34,15.958,13.123,26.425,13.123h106.265
			c10.518,0,20.179-4.82,26.502-13.225c6.323-8.405,8.279-19.022,5.365-29.129l-41.329-143.328H391.1
			c8.281,0,14.995-6.714,14.995-14.995s-6.714-14.995-14.995-14.995h-31.521V79.542c9.656-3.699,16.532-13.059,16.532-24
			c0-14.168-11.526-25.695-25.695-25.695h-63.088c-14.168,0-25.695,11.526-25.695,25.695c0,11.065,7.032,20.52,16.861,24.13v36.486
			H157.965c-4.674-13.81-15.613-24.748-29.423-29.423V14.995C128.542,6.714,121.828,0,113.547,0
			c-8.281,0-14.995,6.714-14.995,14.995v71.741c-13.81,4.674-24.748,15.613-29.423,29.423h-40.33
			c-8.281,0-14.995,6.714-14.995,14.995s6.714,14.995,14.995,14.995h40.329c4.675,13.81,15.613,24.748,29.422,29.424v142.183
			c-13.81,4.675-24.748,15.613-29.422,29.424H28.799c-8.281,0-14.995,6.714-14.995,14.995s6.714,14.995,14.995,14.995h40.329
			c4.674,13.81,15.613,24.748,29.422,29.423v15.669v44.87v14.902c0,16.525,13.444,29.968,29.968,29.968h324.807
			c24.742,0,44.871-20.129,44.871-44.871C498.197,442.388,478.068,422.26,453.326,422.26z M308.483,81.238h21.104v34.921h-21.104
			V81.238z M306.057,146.149h26.186l15.999,55.481l-3.255,1.406c-2.151,0.931-4.587,0.854-6.679-0.208l-1.438-0.731
			c-11.621-5.904-25.249-5.459-36.46,1.192c-2.348,1.394-5.303,1.46-7.713,0.174l-2.338-1.248L306.057,146.149z M282.142,231.57
			c4.555,1.844,9.399,2.778,14.246,2.778c6.712,0,13.419-1.761,19.326-5.266c2.327-1.381,5.156-1.473,7.571-0.248l1.439,0.731
			c9.985,5.073,21.591,5.469,31.894,1.108l19.352,67.112c0.363,1.259-0.08,2.211-0.514,2.789c-0.435,0.578-1.228,1.267-2.537,1.267
			H266.653c-1.304,0-2.095-0.684-2.529-1.257c-0.436-0.573-0.88-1.52-0.528-2.774L282.142,231.57z M96.646,131.156
			c-0.001-9.321,7.581-16.903,16.901-16.903c9.316,0,16.896,7.577,16.901,16.892c0,0.003,0,0.006,0,0.01c0,0.004,0,0.006,0,0.01
			c-0.005,9.313-7.582,16.889-16.896,16.892c-0.002,0-0.003,0-0.005,0c-0.002,0-0.003,0-0.005,0
			C104.225,148.053,96.646,140.473,96.646,131.156z M113.547,379.075c-9.319,0-16.901-7.582-16.901-16.901
			c-0.001-9.317,7.576-16.897,16.891-16.903c0.003,0,0.006,0,0.01,0c0.004,0,0.006,0,0.01,0c9.312,0.005,16.886,7.58,16.891,16.892
			c0,0.003,0,0.006,0,0.01c0,0.004,0,0.006,0,0.01C130.442,371.498,122.863,379.075,113.547,379.075z M453.326,482.01
			l-324.785,0.022V467.13V452.25h324.785c8.204,0,14.88,6.675,14.88,14.879C468.207,475.335,461.531,482.01,453.326,482.01z"/>
	</g>
</g>
<g>
</g>
<g>
</g>
<g>
</g>
<g>
</g>
<g>
</g>
<g>
</g>
<g>
</g>
<g>
</g>
<g>
</g>
<g>
</g>
<g>
</g>
<g>
</g>
<g>
</g>
<g>
</g>
<g>
</g>
</svg>
