<?xml version="1.0" encoding="iso-8859-1"?>
<!-- Generator: Adobe Illustrator 18.0.0, SVG Export Plug-In . SVG Version: 6.00 Build 0)  -->
<!DOCTYPE svg PUBLIC "-//W3C//DTD SVG 1.1//EN" "http://www.w3.org/Graphics/SVG/1.1/DTD/svg11.dtd">
<svg version="1.1" id="Capa_1" xmlns="http://www.w3.org/2000/svg" xmlns:xlink="http://www.w3.org/1999/xlink" x="0px" y="0px"
	 viewBox="0 0 304.541 304.541" style="enable-background:new 0 0 304.541 304.541;" xml:space="preserve">
<path d="M288.236,48.808L243.502,4.074c-5.43-5.432-14.234-5.432-19.664,0c-4.875,4.874-5.359,12.46-1.482,17.891l-15.161,15.161
	c-26.535-8.819-56.729-2.76-77.828,18.34c-20.455,20.455-27.342,50.73-18.382,77.727L16,225.907
	c-2.597,2.535-3.964,6.073-3.746,9.695l3.438,57.189c0.294,4.889,3.416,9.156,7.987,10.916c1.459,0.561,2.979,0.834,4.488,0.834
	c3.217,0,6.376-1.242,8.756-3.577l122.011-119.707c26.229,8.753,56.558,3.045,77.913-18.312
	c20.481-20.481,27.357-50.811,18.345-77.836l15.154-15.154c2.406,1.718,5.229,2.591,8.059,2.591c3.559,0,7.117-1.357,9.832-4.073
	C293.667,63.042,293.667,54.238,288.236,48.808z M211.858,98.13c-2.441,2.44-5.641,3.661-8.839,3.661
	c-3.199,0-6.398-1.221-8.839-3.661c-2.739-2.739-6.38-4.247-10.253-4.247c-3.872,0-7.514,1.508-10.253,4.247
	c-4.881,4.881-12.797,4.881-17.678,0c-4.882-4.882-4.882-12.796,0-17.678c7.461-7.461,17.381-11.569,27.931-11.569
	c10.551,0,20.471,4.108,27.931,11.569C216.74,85.334,216.739,93.249,211.858,98.13z"/>
<g>
</g>
<g>
</g>
<g>
</g>
<g>
</g>
<g>
</g>
<g>
</g>
<g>
</g>
<g>
</g>
<g>
</g>
<g>
</g>
<g>
</g>
<g>
</g>
<g>
</g>
<g>
</g>
<g>
</g>
</svg>
