<?xml version="1.0" encoding="iso-8859-1"?>
<!-- Generator: Adobe Illustrator 19.0.0, SVG Export Plug-In . SVG Version: 6.00 Build 0)  -->
<svg version="1.1" id="Capa_1" xmlns="http://www.w3.org/2000/svg" xmlns:xlink="http://www.w3.org/1999/xlink" x="0px" y="0px"
	 viewBox="0 0 512 512" style="enable-background:new 0 0 512 512;" xml:space="preserve">
<g>
	<g>
		<path d="M409.796,63.705C368.715,22.624,314.097,0,256,0S143.285,22.624,102.204,63.705C61.124,104.785,38.5,159.404,38.5,217.5
			v267c0,15.164,12.337,27.5,27.5,27.5s27.5-12.336,27.5-27.5V362.059c2.806,3.146,5.699,6.231,8.704,9.236
			C143.285,412.376,197.903,435,256,435c34.91,0,69.619-8.471,100.374-24.497c23.382-12.184,44.537-28.75,62.126-48.482V484.5
			c0,15.164,12.337,27.5,27.5,27.5c15.163,0,27.5-12.336,27.5-27.5v-267C473.5,159.404,450.876,104.785,409.796,63.705z M66,497
			c-6.893,0-12.5-5.607-12.5-12.5S59.107,472,66,472s12.5,5.607,12.5,12.5S72.893,497,66,497z M78.5,460.018
			C74.747,458.093,70.5,457,66,457s-8.747,1.093-12.5,3.018V297.16c6.394,16.266,14.767,31.737,25,46.115V460.018z M446,497
			c-6.893,0-12.5-5.607-12.5-12.5S439.107,472,446,472s12.5,5.607,12.5,12.5S452.893,497,446,497z M458.5,460.018
			c-3.753-1.924-8-3.018-12.5-3.018s-8.747,1.093-12.5,3.018V217.5C433.5,119.626,353.874,40,256,40
			c-41.618,0-82.085,14.707-113.945,41.411c-3.175,2.661-3.592,7.391-0.931,10.566c2.661,3.175,7.392,3.592,10.565,0.93
			C180.854,68.462,217.899,55,256,55c89.603,0,162.5,72.897,162.5,162.5S345.603,380,256,380S93.5,307.103,93.5,217.5
			c0-38.101,13.462-75.145,37.906-104.311c2.661-3.174,2.244-7.905-0.931-10.565c-3.174-2.66-7.904-2.244-10.565,0.93
			C93.206,135.416,78.5,175.882,78.5,217.5C78.5,315.374,158.126,395,256,395c72.498,0,134.971-43.694,162.5-106.126v49.442
			C380.37,389.5,319.819,420,256,420c-111.659,0-202.5-90.841-202.5-202.5S144.341,15,256,15s202.5,90.841,202.5,202.5V460.018z"/>
	</g>
</g>
<g>
	<g>
		<path d="M256,80c-75.817,0-137.5,61.682-137.5,137.5S180.183,355,256,355s137.5-61.682,137.5-137.5S331.817,80,256,80z M256,340
			c-67.547,0-122.5-54.953-122.5-122.5S188.453,95,256,95s122.5,54.953,122.5,122.5S323.547,340,256,340z"/>
	</g>
</g>
<g>
	<g>
		<path d="M256,120c-53.762,0-97.5,43.738-97.5,97.5c0,53.762,43.738,97.5,97.5,97.5c53.762,0,97.5-43.738,97.5-97.5
			C353.5,163.738,309.762,120,256,120z M256,300c-45.49,0-82.5-37.009-82.5-82.5c0-45.491,37.01-82.5,82.5-82.5
			s82.5,37.009,82.5,82.5C338.5,262.991,301.49,300,256,300z"/>
	</g>
</g>
<g>
</g>
<g>
</g>
<g>
</g>
<g>
</g>
<g>
</g>
<g>
</g>
<g>
</g>
<g>
</g>
<g>
</g>
<g>
</g>
<g>
</g>
<g>
</g>
<g>
</g>
<g>
</g>
<g>
</g>
</svg>
